<svg xmlns="http://www.w3.org/2000/svg" version="1.1" xmlns:xlink="http://www.w3.org/1999/xlink" xmlns:svgjs="http://svgjs.com/svgjs" width="400" height="900" preserveAspectRatio="none" viewBox="0 0 400 900"><g mask="url(&quot;#SvgjsMask1012&quot;)" fill="none"><rect width="400" height="900" x="0" y="0" fill="rgba(254, 255, 255, 1)"></rect><path d="M205.85 219.52 a8.38 8.38 0 1 0 16.76 0 a8.38 8.38 0 1 0 -16.76 0z" stroke="#037b0b"></path><path d="M128.93 656.78L163.7 656.78L163.7 660.09L128.93 660.09z" fill="#d3b714"></path><path d="M246.17 86.66 a25.05 25.05 0 1 0 50.1 0 a25.05 25.05 0 1 0 -50.1 0z" stroke="#e73635"></path><path d="M193.36 572.38a14.76 14.76 0 1 0 29.16-4.56z" stroke="#037b0b"></path><path d="M282.69 214.77a7.92 7.92 0 1 0 9.8-12.44z" stroke="#037b0b"></path><path d="M355.05 429.22 a5.92 5.92 0 1 0 11.84 0 a5.92 5.92 0 1 0 -11.84 0z" fill="#037b0b"></path><path d="M355.72 639.09L363.17 639.09L363.17 646.54L355.72 646.54z" stroke="#d3b714"></path><path d="M157.47 406.85a19.38 19.38 0 1 0 16.47-35.09z" fill="#d3b714"></path><path d="M119.89 397.97L143.08 397.97L143.08 421.16L119.89 421.16z" stroke="#037b0b"></path><path d="M97.34 704.42L119.33 704.42L119.33 726.41L97.34 726.41z" fill="#037b0b"></path><path d="M27.97 640.99L56.09 640.99L56.09 660.41L27.97 660.41z" stroke="#037b0b"></path><path d="M7.39 421.89L22.67 421.89L22.67 448.22L7.39 448.22z" stroke="#e73635"></path><path d="M318.52 581.77L348.94 581.77L348.94 602.47L318.52 602.47z" fill="#d3b714"></path><path d="M116.88 804.32 a12.39 12.39 0 1 0 24.78 0 a12.39 12.39 0 1 0 -24.78 0z" stroke="#037b0b"></path><path d="M230.17 594.05L250.94 594.05L250.94 614.82L230.17 614.82z" fill="#037b0b"></path><path d="M331.69 150.66L347.96 150.66L347.96 184.86L331.69 184.86z" fill="#e73635"></path><path d="M335.34 275.44L366.17 275.44L366.17 306.27L335.34 306.27z" fill="#e73635"></path><path d="M393.71 788.63L422.84 788.63L422.84 817.76L393.71 817.76z" fill="#d3b714"></path><path d="M386.08 633.69L409.53 633.69L409.53 647.8L386.08 647.8z" fill="#037b0b"></path><path d="M337.15 47.38L350.68 47.38L350.68 60.91L337.15 60.91z" stroke="#d3b714"></path><path d="M193.41 132.15a24.27 24.27 0 1 0 7.29-47.99z" stroke="#d3b714"></path><path d="M29.2 188.35L32.94 188.35L32.94 203.3L29.2 203.3z" stroke="#e73635"></path><path d="M93.61 335.06L108.78 335.06L108.78 350.23L93.61 350.23z" stroke="#e73635"></path><path d="M194 508.14a15.42 15.42 0 1 0-28.1-12.71z" fill="#037b0b"></path><path d="M131.04 617.49 a26.22 26.22 0 1 0 52.44 0 a26.22 26.22 0 1 0 -52.44 0z" fill="#d3b714"></path><path d="M248.82 190.7L272.27 190.7L272.27 214.15L248.82 214.15z" stroke="#037b0b"></path><path d="M352.86 839.52 a25.31 25.31 0 1 0 50.62 0 a25.31 25.31 0 1 0 -50.62 0z" stroke="#d3b714"></path><path d="M366.58 206.32a19.65 19.65 0 1 0-39.26 1.81z" fill="#e73635"></path><path d="M257.32 468.06a21.67 21.67 0 1 0-36.63-23.16z" stroke="#e73635"></path></g><defs><mask id="SvgjsMask1012"><rect width="400" height="900" fill="#ffffff"></rect></mask></defs></svg>