<svg xmlns="http://www.w3.org/2000/svg" version="1.1" xmlns:xlink="http://www.w3.org/1999/xlink" xmlns:svgjs="http://svgjs.com/svgjs" width="1440" height="560" preserveAspectRatio="none" viewBox="0 0 1440 560"><g mask="url(&quot;#SvgjsMask1001&quot;)" fill="none"><rect width="1440" height="560" x="0" y="0" fill="rgba(254, 255, 255, 1)"></rect><path d="M718.35 145.59 a39.54 39.54 0 1 0 79.08 0 a39.54 39.54 0 1 0 -79.08 0z" fill="#037b0b"></path><path d="M379.15 203.33L420.78 203.33L420.78 244.96L379.15 244.96z" stroke="#037b0b"></path><path d="M1026.27 525.71L1062.58 525.71L1062.58 562.02L1026.27 562.02z" fill="#d3b714"></path><path d="M384.1 390.63a35.32 35.32 0 1 0 31.89 63.03z" fill="#e73635"></path><path d="M692.02 224.87L692.45 224.87L692.45 225.3L692.02 225.3z" fill="#d3b714"></path><path d="M1164.03 169.78L1199.25 169.78L1199.25 205L1164.03 205z" stroke="#037b0b"></path><path d="M921.12 196.94L955.68 196.94L955.68 231.5L921.12 231.5z" fill="#d3b714"></path><path d="M531.42 535.14 a51.57 51.57 0 1 0 103.14 0 a51.57 51.57 0 1 0 -103.14 0z" stroke="#037b0b"></path><path d="M937.05 394.85 a37.33 37.33 0 1 0 74.66 0 a37.33 37.33 0 1 0 -74.66 0z" fill="#e73635"></path><path d="M244.66 407.85a20.73 20.73 0 1 0 40.14 10.38z" stroke="#037b0b"></path><path d="M461.44 80.78L508.19 80.78L508.19 127.53L461.44 127.53z" stroke="#d3b714"></path><path d="M1350.55 311.41 a21.06 21.06 0 1 0 42.12 0 a21.06 21.06 0 1 0 -42.12 0z" stroke="#e73635"></path><path d="M448.72 329.7L481.73 329.7L481.73 365.27L448.72 365.27z" fill="#e73635"></path><path d="M415.39 522.66L415.99 522.66L415.99 523.26L415.39 523.26z" stroke="#037b0b"></path><path d="M432.47 340.07 a10.84 10.84 0 1 0 21.68 0 a10.84 10.84 0 1 0 -21.68 0z" stroke="#037b0b"></path><path d="M372.18 116.16 a16.97 16.97 0 1 0 33.94 0 a16.97 16.97 0 1 0 -33.94 0z" fill="#e73635"></path><path d="M1388.04 25.14 a48.64 48.64 0 1 0 97.28 0 a48.64 48.64 0 1 0 -97.28 0z" stroke="#e73635"></path><path d="M478.89 433.87a30.71 30.71 0 1 0 43.59-43.27z" fill="#e73635"></path><path d="M182.62 387.42a49.1 49.1 0 1 0-59.56 78.07z" fill="#037b0b"></path><path d="M705.74 515.12L742.54 515.12L742.54 551.92L705.74 551.92z" stroke="#d3b714"></path><path d="M260.47 36.56L279.16 36.56L279.16 55.25L260.47 55.25z" fill="#e73635"></path><path d="M266.95 55.55L315.73 55.55L315.73 104.33L266.95 104.33z" fill="#037b0b"></path><path d="M1265.19 122.03 a4.43 4.43 0 1 0 8.86 0 a4.43 4.43 0 1 0 -8.86 0z" stroke="#037b0b"></path><path d="M583.63 326.31L604.39 326.31L604.39 347.07L583.63 347.07z" fill="#037b0b"></path><path d="M1188 10.58L1215.65 10.58L1215.65 38.23L1188 38.23z" stroke="#037b0b"></path><path d="M674.59 305.37L726.71 305.37L726.71 355.68L674.59 355.68z" fill="#d3b714"></path><path d="M792.96 220.32a45.53 45.53 0 1 0-59.7-68.76z" stroke="#037b0b"></path><path d="M266.02 486.96 a14.44 14.44 0 1 0 28.88 0 a14.44 14.44 0 1 0 -28.88 0z" fill="#037b0b"></path><path d="M247.16 66.26 a32.99 32.99 0 1 0 65.98 0 a32.99 32.99 0 1 0 -65.98 0z" fill="#d3b714"></path><path d="M818.89 140.56L834.22 140.56L834.22 155.89L818.89 155.89z" stroke="#037b0b"></path><path d="M678.66 471.15L692.62 471.15L692.62 485.11L678.66 485.11z" stroke="#e73635"></path><path d="M385.43 377.56 a14.25 14.25 0 1 0 28.5 0 a14.25 14.25 0 1 0 -28.5 0z" fill="#037b0b"></path><path d="M506.11 514.57L507.82 514.57L507.82 516.28L506.11 516.28z" fill="#037b0b"></path></g><defs><mask id="SvgjsMask1001"><rect width="1440" height="560" fill="#ffffff"></rect></mask></defs></svg>